<svg width="30" height="29" viewBox="0 0 30 29" fill="none" xmlns="http://www.w3.org/2000/svg">
<path opacity="0.4" d="M22.3814 9.29505L22.2126 9.1986L20.5369 8.23413L17.0768 6.23286C16.0159 5.61802 14.4005 5.61802 13.3395 6.23286L9.87951 8.23413L8.20375 9.21066L7.98675 9.33121C5.82875 10.7779 5.68408 11.0431 5.68408 13.3699V18.9277C5.68408 21.2544 5.82875 21.5197 8.03497 23.0025L13.3395 26.0647C13.87 26.3782 14.5331 26.5228 15.2082 26.5228C15.8713 26.5228 16.5464 26.3782 17.0768 26.0647L22.4296 22.9664C24.5876 21.5197 24.7323 21.2544 24.7323 18.9277V13.3699C24.7323 11.0431 24.5876 10.7779 22.3814 9.29505Z" fill="#A92D94"/>
<path d="M8.20386 9.21062L9.87962 8.2341L13.1829 6.32928L13.3396 6.23283C14.4006 5.61799 16.016 5.61799 17.077 6.23283L17.2337 6.32928L20.537 8.2341L22.2127 9.19857V6.61862C22.2127 3.90606 20.7178 2.41113 18.0053 2.41113H12.3993C9.68673 2.41113 8.20386 3.90606 8.20386 6.61862V9.21062Z" fill="#A92D94"/>
<path d="M18.6322 16.0827L17.8847 16.9989C17.7641 17.1315 17.6798 17.3968 17.6918 17.5776L17.7641 18.7591C17.8124 19.4824 17.294 19.8561 16.6188 19.5909L15.5218 19.1569C15.353 19.0966 15.0636 19.0966 14.8949 19.1569L13.7978 19.5909C13.1226 19.8561 12.6042 19.4824 12.6525 18.7591L12.7248 17.5776C12.7369 17.3968 12.6525 17.1315 12.5319 16.9989L11.7844 16.0827C11.3143 15.5281 11.5192 14.9133 12.2185 14.7324L13.3638 14.4431C13.5446 14.3948 13.7616 14.2261 13.8581 14.0693L14.497 13.0808C14.8949 12.4659 15.5218 12.4659 15.9196 13.0808L16.5586 14.0693C16.655 14.2261 16.872 14.3948 17.0528 14.4431L18.1982 14.7324C18.8974 14.9133 19.1023 15.5281 18.6322 16.0827Z" fill="#A92D94"/>
</svg>
