<svg width="30" height="29" viewBox="0 0 30 29" fill="none" xmlns="http://www.w3.org/2000/svg">
<path opacity="0.4" d="M21.2697 0.000244141H9.14645C3.88052 0.000244141 0.741211 3.13955 0.741211 8.40548V20.5142C0.741211 25.7946 3.88052 28.9339 9.14645 28.9339H21.2552C26.5211 28.9339 29.6604 25.7946 29.6604 20.5287V8.40548C29.6749 3.13955 26.5356 0.000244141 21.2697 0.000244141Z" fill="#EBE70E"/>
<path d="M29.429 2.24268C27.9099 6.01853 24.4668 10.9517 21.1684 14.1778C20.691 11.1977 18.3184 8.86849 15.3093 8.44896C18.5499 5.15052 23.512 1.64954 27.3023 0.116054C27.9678 -0.14435 28.6478 0.0581862 29.0528 0.477725C29.5013 0.91173 29.7038 1.57721 29.429 2.24268Z" fill="#EBE70E"/>
<path opacity="0.4" d="M21.1684 14.1633C20.5898 14.7275 20.0111 15.2483 19.4613 15.6823L17.19 17.5052C16.9007 17.7077 16.6114 17.8813 16.2931 18.026C16.2931 17.809 16.2642 17.592 16.2497 17.3605C16.1195 16.4057 15.6855 15.4943 14.9043 14.7131C14.1086 13.9318 13.1538 13.4834 12.1845 13.3532C11.9531 13.3242 11.7071 13.3242 11.4901 13.3242C11.6203 12.9626 11.8084 12.6298 12.0543 12.355L13.8627 10.0837C14.2967 9.53393 14.7886 8.98419 15.3238 8.43445C18.3185 8.85399 20.7055 11.1976 21.1684 14.1633Z" fill="#EBE70E"/>
<path d="M16.2932 18.0405C16.2932 19.3136 15.8013 20.5288 14.8899 21.4402C14.181 22.1491 13.2407 22.6409 12.0833 22.7856L9.2478 23.1039C7.69985 23.2775 6.3689 21.9465 6.5425 20.3841L6.86077 17.5486C7.13564 15.0169 9.2478 13.3966 11.4902 13.3532C11.7072 13.3387 11.9531 13.3532 12.1846 13.3821C13.1683 13.5123 14.1087 13.9608 14.9043 14.742C15.6711 15.5088 16.1196 16.4346 16.2498 17.3895C16.2642 17.6065 16.2932 17.8235 16.2932 18.0405Z" fill="#EBE70E"/>
</svg>
