<svg width="173" height="60" viewBox="0 0 173 60" fill="none" xmlns="http://www.w3.org/2000/svg">
<path opacity="0.99" d="M18.4661 51.11L23.2821 53.7785C24.1926 54.285 25.2912 54.2925 26.2093 53.8087L41.9742 45.0472C43.0277 44.4651 43.7727 43.4522 44.0285 42.2653L44.2543 41.2296H38.3622H27.1499C26.0814 41.2296 25.1407 40.5191 24.8473 39.491L23.6959 35.5298L16.4192 40.451C15.742 40.9046 15.4485 41.7588 15.7044 42.5374L18.4661 51.11Z" fill="#2D337B"/>
<path opacity="0.99" d="M8.83433 45.2589L18.4664 51.11L15.7423 42.6962C15.4639 41.8345 15.7874 40.8895 16.5399 40.383L23.6887 35.5449L18.4664 17.5532L10.8134 20.7585C9.50406 21.3103 8.52581 22.4518 8.18718 23.8352L4.86113 37.3441C4.6128 38.3571 4.77083 39.4305 5.29758 40.3301L7.21646 43.6109C7.60776 44.2913 8.16461 44.8507 8.83433 45.2589Z" fill="#E51148"/>
<path d="M18.9634 38.7426L15.675 27.0254C15.4417 26.1863 15.8255 25.3018 16.593 24.9087L20.0771 23.1246L23.6816 35.545L18.9634 38.7426Z" fill="#F0E400"/>
<path opacity="0.99" d="M18.4668 17.5532L19.4827 21.0533L24.9157 39.7556C25.1716 40.6325 25.9768 41.2372 26.8873 41.2372H38.3629H44.255L46.1287 33.4812C46.2567 32.9444 46.2567 32.385 46.1287 31.8483L44.2926 24.2434C44.2701 24.1451 44.24 24.0393 44.2099 23.941L42.2534 18.1504C41.9674 17.2962 41.3504 16.5856 40.5377 16.185L23.2828 7.62757C22.7561 7.37055 22.1766 7.86192 22.3497 8.42132L23.945 13.713C24.1783 14.4916 23.787 15.3156 23.042 15.6331L18.4668 17.5532Z" fill="#AD2685"/>
<path d="M53.42 51.6089H53.0513C52.7653 51.6089 52.5471 51.5258 52.3815 51.3595C52.2235 51.1931 52.1407 50.9664 52.1407 50.6715V49.3184C52.1407 49.0236 52.2235 48.7968 52.3815 48.6305C52.5396 48.4642 52.7653 48.381 53.0513 48.381H53.42C53.7436 48.381 53.9618 48.4944 54.0671 48.7136H54.0897V47.2471C54.0897 47.1866 54.1198 47.1564 54.1725 47.1564H54.4585C54.5111 47.1564 54.5412 47.1866 54.5412 47.2471V51.5106C54.5412 51.5711 54.5111 51.6014 54.4585 51.6014H54.1725C54.1198 51.6014 54.0897 51.5711 54.0897 51.5106V51.2612H54.0671C53.9618 51.5031 53.7436 51.6089 53.42 51.6089ZM54.0897 50.6262V49.3789C54.0897 49.1899 54.037 49.0538 53.9392 48.948C53.8414 48.8497 53.6909 48.7968 53.5028 48.7968H53.119C52.7728 48.7968 52.5998 48.9782 52.5998 49.3486V50.664C52.5998 51.0268 52.7728 51.2158 53.119 51.2158H53.5028C53.6909 51.2158 53.8339 51.1629 53.9392 51.0646C54.037 50.9512 54.0897 50.8076 54.0897 50.6262Z" fill="#3E2984"/>
<path d="M59.8469 47.8593V47.2621C59.8469 47.2017 59.877 47.1714 59.9297 47.1714H60.2156C60.2758 47.1714 60.3059 47.2017 60.3059 47.2621V47.8593C60.3059 47.9198 60.2758 47.9501 60.2156 47.9501H59.9297C59.8695 47.9501 59.8469 47.9198 59.8469 47.8593ZM59.8469 51.5257V48.4792C59.8469 48.4188 59.877 48.3885 59.9297 48.3885H60.2156C60.2758 48.3885 60.3059 48.4188 60.3059 48.4792V51.5257C60.3059 51.5862 60.2758 51.6164 60.2156 51.6164H59.9297C59.877 51.6089 59.8469 51.5786 59.8469 51.5257Z" fill="#3E2984"/>
<path d="M66.8145 51.6089H66.4608C66.1749 51.6089 65.9566 51.5258 65.7911 51.3595C65.6331 51.1932 65.5503 50.9664 65.5503 50.6715V49.3259C65.5503 49.0311 65.6331 48.8043 65.7986 48.638C65.9642 48.4717 66.1899 48.3886 66.4834 48.3886H67.8454C67.9056 48.3886 67.9357 48.4188 67.9357 48.4793V51.624C67.9357 51.9113 67.8529 52.1456 67.6874 52.312C67.5218 52.4783 67.2961 52.5614 67.0026 52.5614H65.8438C65.7836 52.5614 65.7459 52.5312 65.7459 52.4707V52.2364C65.7459 52.1759 65.776 52.1457 65.8438 52.1457H66.9424C67.2961 52.1457 67.4692 51.9642 67.4692 51.6014V51.2687H67.4466C67.3488 51.5031 67.1381 51.6089 66.8145 51.6089ZM67.4842 50.6262V48.8573C67.4842 48.8195 67.4616 48.7968 67.424 48.7968H66.5511C66.1974 48.7968 66.0244 48.9782 66.0244 49.3486V50.6564C66.0244 51.0193 66.1974 51.2083 66.5511 51.2083H66.9048C67.0929 51.2083 67.2359 51.1554 67.3412 51.0571C67.4315 50.9512 67.4842 50.8076 67.4842 50.6262Z" fill="#3E2984"/>
<path d="M73.2488 47.8593V47.2621C73.2488 47.2017 73.2789 47.1714 73.3316 47.1714H73.6175C73.6777 47.1714 73.7078 47.2017 73.7078 47.2621V47.8593C73.7078 47.9198 73.6777 47.9501 73.6175 47.9501H73.3316C73.2714 47.9501 73.2488 47.9198 73.2488 47.8593ZM73.2488 51.5257V48.4792C73.2488 48.4188 73.2789 48.3885 73.3316 48.3885H73.6175C73.6777 48.3885 73.7078 48.4188 73.7078 48.4792V51.5257C73.7078 51.5862 73.6777 51.6164 73.6175 51.6164H73.3316C73.2714 51.6089 73.2488 51.5786 73.2488 51.5257Z" fill="#3E2984"/>
<path d="M79.1254 48.7968H78.7793C78.7191 48.7968 78.689 48.7665 78.689 48.7136V48.4793C78.689 48.4188 78.7191 48.3886 78.7793 48.3886H79.1254C79.1706 48.3886 79.1856 48.3659 79.1856 48.3281V47.7838C79.1856 47.7233 79.2157 47.6931 79.2759 47.6931H79.5619C79.6145 47.6931 79.6446 47.7233 79.6446 47.7838V48.3281C79.6446 48.3659 79.6672 48.3886 79.7124 48.3886H80.3821C80.4423 48.3886 80.4799 48.4188 80.4799 48.4793V48.7136C80.4799 48.7665 80.4498 48.7968 80.3821 48.7968H79.7124C79.6672 48.7968 79.6446 48.8195 79.6446 48.8573V50.6791C79.6446 51.0344 79.8328 51.2158 80.2015 51.2158H80.4498C80.51 51.2158 80.5476 51.2461 80.5476 51.3065V51.5409C80.5476 51.5938 80.5175 51.624 80.4498 51.624H80.1488C79.8629 51.624 79.6296 51.5409 79.4565 51.3821C79.2834 51.2234 79.2007 50.9966 79.2007 50.7018V48.8648C79.1856 48.8119 79.163 48.7968 79.1254 48.7968Z" fill="#3E2984"/>
<path d="M86.7934 51.6089H86.4698C86.1839 51.6089 85.9506 51.5258 85.7851 51.3595C85.6195 51.1931 85.5367 50.9664 85.5367 50.6715V49.3184C85.5367 49.0236 85.6195 48.7968 85.7851 48.6305C85.9506 48.4642 86.1764 48.381 86.4698 48.381H87.8319C87.8921 48.381 87.9222 48.4112 87.9222 48.4717V51.5182C87.9222 51.5787 87.8921 51.6089 87.8319 51.6089H87.5459C87.4857 51.6089 87.4556 51.5787 87.4556 51.5182V51.2687H87.433C87.3352 51.5031 87.117 51.6089 86.7934 51.6089ZM87.4631 50.6262V48.8497C87.4631 48.8119 87.4406 48.7892 87.4029 48.7892H86.5225C86.1764 48.7892 86.0033 48.9706 86.0033 49.3411V50.6564C86.0033 51.0193 86.1764 51.2083 86.5225 51.2083H86.8837C87.0718 51.2083 87.2148 51.1553 87.3202 51.0571C87.4105 50.9512 87.4631 50.8076 87.4631 50.6262Z" fill="#3E2984"/>
<path d="M93.5955 51.609H93.3095C93.2493 51.609 93.2192 51.5787 93.2192 51.5182V47.2547C93.2192 47.1942 93.2493 47.164 93.3095 47.164H93.5955C93.6557 47.164 93.6858 47.1942 93.6858 47.2547V51.5182C93.6783 51.5787 93.6482 51.609 93.5955 51.609Z" fill="#3E2984"/>
<path d="M106.073 51.6089H104.952C104.892 51.6089 104.862 51.5786 104.862 51.5182V51.2989C104.862 51.246 104.892 51.2158 104.952 51.2158H106.005C106.329 51.2158 106.494 51.0948 106.494 50.8529V50.732C106.494 50.5052 106.389 50.354 106.171 50.2708L105.426 49.9533C105.215 49.8626 105.057 49.7644 104.967 49.6434C104.877 49.5224 104.831 49.3637 104.831 49.1672C104.831 48.6455 105.117 48.3885 105.682 48.3885H106.713C106.773 48.3885 106.803 48.4188 106.803 48.4792V48.6985C106.803 48.7514 106.773 48.7816 106.713 48.7816H105.765C105.614 48.7816 105.501 48.8119 105.418 48.8799C105.343 48.9404 105.306 49.016 105.306 49.0991V49.2049C105.306 49.3788 105.426 49.5149 105.667 49.6056L106.412 49.9382C106.63 50.0214 106.78 50.1348 106.856 50.2708C106.931 50.4069 106.969 50.6035 106.969 50.8454C106.969 51.3594 106.668 51.6089 106.073 51.6089Z" fill="#3E2984"/>
<path d="M113.515 51.6089H112.973C112.687 51.6089 112.454 51.5258 112.288 51.3595C112.123 51.1931 112.04 50.9664 112.04 50.6715V49.3184C112.04 49.0236 112.123 48.7968 112.288 48.6305C112.454 48.4642 112.679 48.381 112.973 48.381H113.515C113.801 48.381 114.034 48.4642 114.199 48.6305C114.365 48.7968 114.448 49.0236 114.448 49.3184V50.6715C114.448 50.9664 114.365 51.1931 114.199 51.3595C114.034 51.5258 113.801 51.6089 113.515 51.6089ZM113.026 51.2083H113.462C113.816 51.2083 113.989 51.0268 113.989 50.664V49.3411C113.989 48.9782 113.816 48.7968 113.462 48.7968H113.026C112.672 48.7968 112.499 48.9782 112.499 49.3411V50.664C112.499 51.0268 112.672 51.2083 113.026 51.2083Z" fill="#3E2984"/>
<path d="M120.053 51.609H119.768C119.707 51.609 119.677 51.5787 119.677 51.5182V47.2547C119.677 47.1942 119.707 47.164 119.768 47.164H120.053C120.114 47.164 120.144 47.1942 120.144 47.2547V51.5182C120.144 51.5787 120.114 51.609 120.053 51.609Z" fill="#3E2984"/>
<path d="M126.669 51.6091H126.315C126.029 51.6091 125.811 51.526 125.645 51.3597C125.487 51.1933 125.404 50.9666 125.404 50.6717V48.4719C125.404 48.4114 125.435 48.3812 125.495 48.3812H125.781C125.841 48.3812 125.871 48.4114 125.871 48.4719V50.6491C125.871 51.0119 126.044 51.2009 126.39 51.2009H126.751C126.94 51.2009 127.083 51.148 127.188 51.0497C127.286 50.9514 127.338 50.8078 127.338 50.6188V48.4719C127.338 48.4114 127.368 48.3812 127.429 48.3812H127.715C127.775 48.3812 127.805 48.4114 127.805 48.4719V51.5184C127.805 51.5789 127.775 51.6091 127.715 51.6091H127.429C127.368 51.6091 127.338 51.5789 127.338 51.5184V51.2689H127.316C127.21 51.5033 126.992 51.6091 126.669 51.6091Z" fill="#3E2984"/>
<path d="M133.185 48.7968H132.839C132.779 48.7968 132.749 48.7666 132.749 48.7137V48.4793C132.749 48.4188 132.779 48.3886 132.839 48.3886H133.185C133.231 48.3886 133.246 48.3659 133.246 48.3281V47.7838C133.246 47.7234 133.276 47.6931 133.336 47.6931H133.622C133.675 47.6931 133.705 47.7234 133.705 47.7838V48.3281C133.705 48.3659 133.727 48.3886 133.772 48.3886H134.442C134.502 48.3886 134.54 48.4188 134.54 48.4793V48.7137C134.54 48.7666 134.51 48.7968 134.442 48.7968H133.772C133.727 48.7968 133.705 48.8195 133.705 48.8573V50.6791C133.705 51.0344 133.893 51.2159 134.262 51.2159H134.51C134.57 51.2159 134.608 51.2461 134.608 51.3066V51.5409C134.608 51.5938 134.578 51.6241 134.51 51.6241H134.209C133.923 51.6241 133.69 51.5409 133.517 51.3822C133.343 51.2234 133.261 50.9966 133.261 50.7018V48.8649C133.246 48.8119 133.231 48.7968 133.185 48.7968Z" fill="#3E2984"/>
<path d="M139.694 47.8593V47.2621C139.694 47.2017 139.724 47.1714 139.777 47.1714H140.063C140.123 47.1714 140.153 47.2017 140.153 47.2621V47.8593C140.153 47.9198 140.123 47.9501 140.063 47.9501H139.777C139.716 47.9501 139.694 47.9198 139.694 47.8593ZM139.694 51.5257V48.4792C139.694 48.4188 139.724 48.3885 139.777 48.3885H140.063C140.123 48.3885 140.153 48.4188 140.153 48.4792V51.5257C140.153 51.5862 140.123 51.6164 140.063 51.6164H139.777C139.724 51.6089 139.694 51.5786 139.694 51.5257Z" fill="#3E2984"/>
<path d="M146.858 51.609H146.316C146.03 51.609 145.797 51.5258 145.631 51.3595C145.466 51.1932 145.383 50.9664 145.383 50.6716V49.3184C145.383 49.0236 145.466 48.7968 145.631 48.6305C145.797 48.4642 146.022 48.3811 146.316 48.3811H146.858C147.144 48.3811 147.377 48.4642 147.542 48.6305C147.708 48.7968 147.791 49.0236 147.791 49.3184V50.6716C147.791 50.9664 147.708 51.1932 147.542 51.3595C147.377 51.5258 147.151 51.609 146.858 51.609ZM146.369 51.2083H146.805C147.159 51.2083 147.332 51.0269 147.332 50.664V49.3411C147.332 48.9783 147.159 48.7968 146.805 48.7968H146.369C146.015 48.7968 145.842 48.9783 145.842 49.3411V50.664C145.842 51.0269 146.022 51.2083 146.369 51.2083Z" fill="#3E2984"/>
<path d="M153.367 51.6089H153.081C153.021 51.6089 152.991 51.5787 152.991 51.5182V48.4717C152.991 48.4112 153.021 48.381 153.081 48.381H153.367C153.427 48.381 153.458 48.4112 153.458 48.4717V48.7212H153.48C153.585 48.4944 153.796 48.3886 154.12 48.3886H154.473C154.759 48.3886 154.978 48.4717 155.143 48.638C155.301 48.8043 155.384 49.0311 155.384 49.3259V51.5258C155.384 51.5862 155.354 51.6165 155.294 51.6165H155.015C154.955 51.6165 154.925 51.5862 154.925 51.5258V49.3486C154.925 48.9858 154.752 48.7968 154.398 48.7968H154.044C153.856 48.7968 153.713 48.8497 153.608 48.948C153.51 49.0462 153.458 49.1899 153.458 49.3789V51.5258C153.458 51.5787 153.427 51.6089 153.367 51.6089Z" fill="#3E2984"/>
<path d="M161.705 51.6089H160.583C160.523 51.6089 160.493 51.5786 160.493 51.5182V51.2989C160.493 51.246 160.523 51.2158 160.583 51.2158H161.637C161.96 51.2158 162.126 51.0948 162.126 50.8529V50.732C162.126 50.5052 162.021 50.354 161.802 50.2708L161.057 49.9533C160.847 49.8626 160.689 49.7644 160.598 49.6434C160.508 49.5224 160.463 49.3637 160.463 49.1672C160.463 48.6455 160.749 48.3885 161.313 48.3885H162.344C162.404 48.3885 162.434 48.4188 162.434 48.4792V48.6985C162.434 48.7514 162.404 48.7816 162.344 48.7816H161.396C161.245 48.7816 161.133 48.8119 161.05 48.8799C160.975 48.9404 160.937 49.016 160.937 49.0991V49.2049C160.937 49.3788 161.057 49.5149 161.298 49.6056L162.043 49.9382C162.261 50.0214 162.412 50.1348 162.487 50.2708C162.562 50.4069 162.6 50.6035 162.6 50.8454C162.608 51.3594 162.307 51.6089 161.705 51.6089Z" fill="#3E2984"/>
<path d="M54.7745 36.4445C53.6984 35.9683 52.8255 35.2803 52.1407 34.3959L54.5713 31.4628C55.6022 32.8537 56.7686 33.5568 58.0855 33.5568C59.8689 33.5568 60.7644 32.506 60.7644 30.4044V22.1645H54.1123V17.8329H65.1139V30.1625C65.1139 32.4984 64.5344 34.2522 63.3831 35.4164C62.2318 36.5806 60.5387 37.1702 58.3037 37.1702C57.0245 37.1627 55.8506 36.9283 54.7745 36.4445Z" fill="url(#paint0_linear_3361_43056)"/>
<path d="M70.6594 24.1754H74.8734V37.1703H70.6594V24.1754Z" fill="url(#paint1_linear_3361_43056)"/>
<path d="M96.4476 22.225V34.6075C96.4476 34.8721 96.4401 35.1215 96.425 35.371C96.3046 37.6691 95.6123 39.4078 94.3632 40.5795C92.9786 41.8798 90.9468 42.5374 88.283 42.5374C86.8758 42.5374 85.5439 42.3636 84.2797 42.0234C83.0155 41.6757 81.9695 41.1843 81.1417 40.5266L82.8198 37.4877C83.4293 37.9942 84.2044 38.3948 85.145 38.6972C86.0857 38.9996 87.0188 39.1432 87.9594 39.1432C89.4192 39.1432 90.4953 38.8106 91.1876 38.1529C91.7971 37.5784 92.1358 36.7393 92.211 35.6432C92.2185 35.4844 92.2261 35.3181 92.2261 35.1518V34.5243C91.1274 35.7414 89.5923 36.3462 87.6283 36.3462C86.2964 36.3462 85.0698 36.0514 83.9636 35.4617C82.8574 34.8721 81.977 34.0481 81.3299 32.9746C80.6827 31.9087 80.3591 30.6765 80.3591 29.278C80.3591 27.8871 80.6827 26.6549 81.3299 25.5814C81.977 24.5155 82.8574 23.684 83.9636 23.0943C85.0698 22.5047 86.2964 22.2099 87.6283 22.2099C89.7353 22.2099 91.3381 22.9053 92.4443 24.3039V22.225H96.4476ZM91.2177 31.8861C91.9326 31.2284 92.2863 30.359 92.2863 29.2931C92.2863 28.2272 91.9326 27.3579 91.2177 26.7002C90.5028 26.0425 89.5923 25.7099 88.4711 25.7099C87.3499 25.7099 86.4318 26.0425 85.7169 26.7002C84.9945 27.3579 84.6333 28.2272 84.6333 29.2931C84.6333 30.359 84.9945 31.2284 85.7169 31.8861C86.4393 32.5437 87.3574 32.8764 88.4711 32.8764C89.5923 32.8764 90.5104 32.5437 91.2177 31.8861Z" fill="url(#paint2_linear_3361_43056)"/>
<path d="M104.424 36.83C103.273 36.5276 102.355 36.1572 101.67 35.7036L103.077 32.6647C103.724 33.0805 104.507 33.4207 105.432 33.6852C106.35 33.9498 107.253 34.0783 108.134 34.0783C109.917 34.0783 110.813 33.6323 110.813 32.7479C110.813 32.3321 110.572 32.0297 110.083 31.8483C109.594 31.6668 108.849 31.5156 107.84 31.3871C106.651 31.2057 105.666 31.0016 104.891 30.7597C104.116 30.5253 103.446 30.1096 102.874 29.5124C102.31 28.9152 102.024 28.0609 102.024 26.9573C102.024 26.035 102.287 25.211 102.821 24.5004C103.356 23.7822 104.131 23.2304 105.146 22.8297C106.162 22.4291 107.366 22.2325 108.758 22.2325C109.789 22.2325 110.805 22.3459 111.829 22.5727C112.845 22.7995 113.687 23.1094 114.357 23.5101L112.95 26.5264C111.671 25.8006 110.271 25.4378 108.758 25.4378C107.855 25.4378 107.178 25.5663 106.734 25.8158C106.283 26.0728 106.057 26.3978 106.057 26.7909C106.057 27.2445 106.298 27.562 106.787 27.7434C107.276 27.9249 108.051 28.0987 109.112 28.2575C110.301 28.454 111.272 28.6733 112.032 28.8925C112.792 29.1193 113.447 29.5275 114.003 30.1247C114.56 30.7219 114.839 31.5534 114.839 32.6269C114.839 33.534 114.568 34.3354 114.026 35.0459C113.484 35.749 112.694 36.3008 111.663 36.6864C110.625 37.0719 109.398 37.2685 107.976 37.2685C106.757 37.276 105.583 37.1248 104.424 36.83Z" fill="url(#paint3_linear_3361_43056)"/>
<path d="M131.266 23.8428C132.47 24.9238 133.08 26.5415 133.08 28.7187V37.0568H129.129V35.235C128.339 36.5957 126.857 37.2685 124.697 37.2685C123.576 37.2685 122.612 37.0795 121.792 36.7015C120.972 36.3235 120.347 35.7944 119.911 35.1291C119.482 34.4563 119.264 33.7004 119.264 32.8462C119.264 31.4854 119.775 30.4196 120.791 29.6409C121.807 28.8623 123.38 28.4768 125.51 28.4768H128.866C128.866 27.5545 128.587 26.8439 128.03 26.345C127.474 25.846 126.631 25.5966 125.517 25.5966C124.742 25.5966 123.982 25.7175 123.229 25.967C122.484 26.2089 121.845 26.5415 121.326 26.9573L119.813 23.994C120.603 23.4345 121.559 22.9961 122.665 22.6937C123.771 22.3838 124.915 22.2326 126.081 22.2326C128.331 22.225 130.062 22.7693 131.266 23.8428ZM127.669 33.9196C128.226 33.587 128.625 33.0881 128.858 32.438V30.9412H125.969C124.238 30.9412 123.372 31.5081 123.372 32.6496C123.372 33.1939 123.583 33.6248 124.005 33.9423C124.426 34.2598 125.005 34.4185 125.75 34.4185C126.473 34.4261 127.112 34.2598 127.669 33.9196Z" fill="url(#paint4_linear_3361_43056)"/>
<path d="M162.607 22.2251L157.332 37.1627H153.276L150.003 28.0913L146.624 37.1627H142.568L137.331 22.2251H141.304L144.735 32.438L148.302 22.2251H151.869L155.331 32.438L158.875 22.2251H162.607Z" fill="url(#paint5_linear_3361_43056)"/>
<g opacity="0.99">
<path d="M71.2011 17.9086C70.9152 17.9086 70.6819 18.1429 70.6819 18.4302V21.5749C70.6819 21.8622 70.9152 22.0966 71.2011 22.0966H74.3315C74.6175 22.0966 74.8507 21.8622 74.8507 21.5749V18.4302C74.8507 18.1429 74.6175 17.9086 74.3315 17.9086H71.2011Z" fill="#AD2685"/>
</g>
<path d="M169.35 22.5274C168.831 23.049 168.207 23.3136 167.469 23.3136C166.732 23.3136 166.107 23.049 165.588 22.5274C165.076 22.0058 164.813 21.3708 164.813 20.63C164.813 19.8967 165.069 19.2692 165.595 18.7476C166.115 18.226 166.739 17.969 167.469 17.969C168.207 17.969 168.831 18.226 169.35 18.7476C169.87 19.2692 170.133 19.8967 170.133 20.63C170.133 21.3708 169.87 22.0058 169.35 22.5274ZM165.851 19.0047C165.407 19.4507 165.181 19.995 165.181 20.63C165.181 21.2725 165.4 21.8168 165.844 22.2704C166.288 22.724 166.829 22.9507 167.462 22.9507C168.094 22.9507 168.635 22.724 169.079 22.2704C169.523 21.8168 169.749 21.2725 169.749 20.63C169.749 19.995 169.523 19.4507 169.079 19.0047C168.635 18.5511 168.094 18.3243 167.462 18.3243C166.837 18.3319 166.295 18.5587 165.851 19.0047ZM167.416 19.1559C167.778 19.1559 168.041 19.1937 168.214 19.2617C168.515 19.3902 168.666 19.6321 168.666 20.0025C168.666 20.2671 168.568 20.4561 168.38 20.5846C168.282 20.6526 168.139 20.698 167.958 20.7282C168.184 20.766 168.357 20.8567 168.462 21.0155C168.568 21.1742 168.62 21.3254 168.62 21.4691V21.6807C168.62 21.7488 168.62 21.8244 168.628 21.9C168.635 21.9756 168.643 22.0285 168.65 22.0512L168.666 22.089H168.184C168.184 22.0814 168.176 22.0663 168.176 22.0587C168.176 22.0512 168.169 22.036 168.169 22.0285L168.161 21.9378V21.7034C168.161 21.3632 168.071 21.144 167.883 21.0306C167.778 20.9701 167.582 20.9399 167.311 20.9399H166.905V22.0965H166.393V19.1634H167.416V19.1559ZM167.973 19.617C167.845 19.5414 167.635 19.5112 167.349 19.5112H166.912V20.577H167.379C167.597 20.577 167.763 20.5544 167.868 20.509C168.071 20.4259 168.169 20.2747 168.169 20.0479C168.169 19.8362 168.101 19.6926 167.973 19.617Z" fill="black"/>
<defs>
<linearGradient id="paint0_linear_3361_43056" x1="52.1412" y1="27.4974" x2="65.1185" y2="27.4974" gradientUnits="userSpaceOnUse">
<stop stop-color="#25221F"/>
<stop offset="0.1142" stop-color="#1A1816"/>
<stop offset="0.3302" stop-color="#0B0A09"/>
<stop offset="0.589" stop-color="#030202"/>
<stop offset="1"/>
</linearGradient>
<linearGradient id="paint1_linear_3361_43056" x1="70.6603" y1="30.6716" x2="74.8779" y2="30.6716" gradientUnits="userSpaceOnUse">
<stop stop-color="#25221F"/>
<stop offset="0.1142" stop-color="#1A1816"/>
<stop offset="0.3302" stop-color="#0B0A09"/>
<stop offset="0.589" stop-color="#030202"/>
<stop offset="1"/>
</linearGradient>
<linearGradient id="paint2_linear_3361_43056" x1="80.3641" y1="32.3862" x2="96.4506" y2="32.3862" gradientUnits="userSpaceOnUse">
<stop stop-color="#25221F"/>
<stop offset="0.1142" stop-color="#1A1816"/>
<stop offset="0.3302" stop-color="#0B0A09"/>
<stop offset="0.589" stop-color="#030202"/>
<stop offset="1"/>
</linearGradient>
<linearGradient id="paint3_linear_3361_43056" x1="101.668" y1="29.7516" x2="114.835" y2="29.7516" gradientUnits="userSpaceOnUse">
<stop stop-color="#25221F"/>
<stop offset="0.1142" stop-color="#1A1816"/>
<stop offset="0.3302" stop-color="#0B0A09"/>
<stop offset="0.589" stop-color="#030202"/>
<stop offset="1"/>
</linearGradient>
<linearGradient id="paint4_linear_3361_43056" x1="119.265" y1="29.7517" x2="133.08" y2="29.7517" gradientUnits="userSpaceOnUse">
<stop stop-color="#25221F"/>
<stop offset="0.1142" stop-color="#1A1816"/>
<stop offset="0.3302" stop-color="#0B0A09"/>
<stop offset="0.589" stop-color="#030202"/>
<stop offset="1"/>
</linearGradient>
<linearGradient id="paint5_linear_3361_43056" x1="137.328" y1="29.6974" x2="162.607" y2="29.6974" gradientUnits="userSpaceOnUse">
<stop stop-color="#25221F"/>
<stop offset="0.1142" stop-color="#1A1816"/>
<stop offset="0.3302" stop-color="#0B0A09"/>
<stop offset="0.589" stop-color="#030202"/>
<stop offset="1"/>
</linearGradient>
</defs>
</svg>
