<svg width="34" height="33" viewBox="0 0 34 33" fill="none" xmlns="http://www.w3.org/2000/svg">
<path opacity="0.4" d="M27.3125 13.0625V19.9375C27.3125 25.6163 22.6788 30.25 17 30.25C11.3212 30.25 6.6875 25.6163 6.6875 19.9375V13.0625C6.6875 10.23 7.8425 7.645 9.7125 5.775C11.3487 4.13875 13.535 3.0525 15.9688 2.805C16.2987 2.76375 16.6562 2.75 17 2.75C17.3438 2.75 17.7013 2.76375 18.0312 2.805C23.2288 3.3275 27.3125 7.7275 27.3125 13.0625Z" fill="#2C3B84"/>
<path d="M19.5713 10.3125V13.0625C19.5713 14.4788 18.4163 15.6475 17 15.6475C15.57 15.6475 14.415 14.4788 14.415 13.0625V10.3125C14.415 9.25375 15.0613 8.34625 15.9688 7.9475V2.805C16.2988 2.76375 16.6563 2.75 17 2.75C17.3438 2.75 17.7013 2.76375 18.0313 2.805V7.9475C18.9388 8.34625 19.5713 9.25375 19.5713 10.3125Z" fill="#2C3B84"/>
</svg>
