<svg width="29" height="30" viewBox="0 0 29 30" fill="none" xmlns="http://www.w3.org/2000/svg">
<path opacity="0.4" d="M18.6623 3.16943H9.07792C4.9066 3.16943 2.4231 5.65292 2.4231 9.82424V19.4086C2.4231 23.58 4.91865 26.0635 9.07792 26.0635H18.6623C22.8336 26.0635 25.3171 23.58 25.3171 19.4086V9.82424C25.3171 5.65292 22.8216 3.16943 18.6623 3.16943Z" fill="#A92D94"/>
<path d="M26.4745 23.4715L24.5094 24.1346C23.9669 24.3154 23.5329 24.7374 23.3521 25.292L22.689 27.2571C22.1224 28.9569 19.7353 28.9208 19.2049 27.2209L16.9746 20.0477C16.5405 18.6251 17.8546 17.2989 19.2652 17.745L26.4504 19.9753C28.1383 20.5058 28.1624 22.9049 26.4745 23.4715Z" fill="#A92D94"/>
</svg>
