<svg width="22" height="22" viewBox="0 0 22 22" fill="none" xmlns="http://www.w3.org/2000/svg">
<path d="M10.192 1.18346C10.4696 0.433427 11.5304 0.433426 11.808 1.18346L14.1036 7.3874C14.1909 7.62321 14.3768 7.80913 14.6126 7.89638L20.8165 10.192C21.5666 10.4696 21.5666 11.5304 20.8165 11.808L14.6126 14.1036C14.3768 14.1909 14.1909 14.3768 14.1036 14.6126L11.808 20.8165C11.5304 21.5666 10.4696 21.5666 10.192 20.8165L7.89638 14.6126C7.80913 14.3768 7.62321 14.1909 7.3874 14.1036L1.18346 11.808C0.433427 11.5304 0.433426 10.4696 1.18346 10.192L7.3874 7.89638C7.62321 7.80913 7.80913 7.62321 7.89638 7.3874L10.192 1.18346Z" fill="#E6144A"/>
</svg>
